<svg xmlns="http://www.w3.org/2000/svg" version="1.1" xmlns:xlink="http://www.w3.org/1999/xlink" viewBox="0 0 700 700" style="overflow: hidden; display: block;" width="700" height="700"><defs></defs><g id="two-0" transform="matrix(1 0 0 1 0 0)" opacity="1"><path transform="matrix(1 0 0 1 350 350)" id="two-126" d="M 330.279968 35.306628 C 330.990801 60.903048 267.997058 32.983729 255.281105 55.209538 C 249.800274 64.789305 271.667548 79.235297 264.268179 87.424362 C 238.333069 116.127394 163.984869 31.938879 148.74852 67.496545 C 127.490907 117.106269 305.500617 117.422776 280.047154 165.016179 C 261.58842 199.530697 202.130598 105.290986 168.363738 125.084317 C 160.783506 129.527669 164.477657 142.569748 163.937074 151.339643 C 163.166499 163.84071 176.838079 183.721597 165.602872 189.256989 C 134.742377 204.461421 113.480724 101.722419 85.81039 122.164959 C 45.594523 151.876002 189.056888 238.128834 144.943053 261.666711 C 93.236879 289.255642 101.878248 90.676505 47.71228 113.053402 C 2.800867 131.607082 83.922341 209.070748 77.56763 257.246382 C 75.538609 272.628578 71.928861 298.701407 56.422764 299.239768 C 32.181752 300.081398 42.51738 241.539114 18.893047 236.041305 C 9.062462 233.753551 1.94753 247.58792 -6.730513 252.742121 C -16.149245 258.336245 -26.451674 273.941831 -35.953591 268.490197 C -66.37351 251.037059 -37.586323 197.288833 -39.645636 162.278223 C -40.473039 148.21144 -29.748121 123.998253 -43.175345 119.724071 C -60.607725 114.174958 -67.236875 148.02192 -78.851526 162.15629 C -113.10745 203.843805 -135.668512 318.551572 -181.227688 289.643465 C -229.466037 259.035376 -68.15308 177.511998 -105.265816 134.078851 C -113.351779 124.615825 -129.941975 140.106827 -141.326204 145.139816 C -182.811862 163.480706 -226.421373 246.160585 -259.578048 215.207671 C -277.011769 198.932684 -240.980557 170.037317 -227.093044 150.647969 C -209.108596 125.538595 -146.281863 110.797055 -161.477494 83.908139 C -184.330307 43.469716 -279.685797 159.190877 -298.367739 116.66439 C -312.449968 84.608423 -241.074474 74.220202 -210.381255 57.373228 C -183.41122 42.569846 -119.488267 50.408851 -124.916052 20.125818 C -132.078268 -19.834055 -208.93416 25.124226 -247.741352 13.204047 C -265.534422 7.738654 -296.226553 2.830346 -296.127727 -15.782931 C -296.040845 -32.146793 -269.034282 -36.245859 -253.320644 -40.813693 C -224.347905 -49.235847 -192.02784 -41.762441 -161.951681 -44.165964 C -149.60821 -45.152387 -127.769815 -36.763958 -124.710625 -48.762943 C -116.560514 -80.729932 -219.496436 -76.937358 -205.951279 -107.017939 C -196.502783 -128.000805 -152.372502 -73.579309 -137.961664 -91.520393 C -129.370518 -102.216126 -158.876182 -115.754473 -155.724986 -129.106494 C -154.08591 -136.051468 -140.113489 -135.464339 -138.719323 -142.462591 C -129.826769 -187.100294 -225.014348 -221.24573 -206.260329 -262.717272 C -201.122316 -274.079174 -181.767083 -270.881605 -169.301042 -270.581946 C -154.537769 -270.227066 -138.255014 -267.458463 -126.029005 -259.175658 C -96.910274 -239.448473 -95.241551 -186.589738 -62.581467 -173.536725 C -56.559279 -171.129883 -48.232553 -172.797727 -43.22137 -176.914485 C -32.948188 -185.35405 -42.013236 -214.917649 -28.72437 -214.504632 C -1.203156 -213.649274 -31.043114 -132.781103 -3.593482 -134.941326 C 64.871845 -140.32939 -41.386709 -342.239237 27.274191 -340.751579 C 68.930324 -339.849026 31.061032 -255.758869 40.575594 -215.193846 C 43.481287 -202.80552 51.619118 -191.54436 53.986629 -179.042017 C 56.990292 -163.180284 39.792031 -135.767817 54.919526 -130.130843 C 75.583439 -122.430827 84.520357 -163.730995 99.60457 -179.816829 C 130.230276 -212.476142 156.760331 -300.998206 194.449963 -276.830951 C 223.377402 -258.282168 173.353102 -209.913468 157.157774 -179.605624 C 138.238522 -144.200246 59.66496 -109.71346 86.947563 -80.266245 C 115.207639 -49.764004 164.309132 -172.897154 195.088704 -144.939391 C 206.341178 -134.718521 184.198365 -115.677053 175.344035 -103.320467 C 163.024007 -86.127356 127.225607 -79.73537 129.34037 -58.689849 C 129.98168 -52.30771 139.697947 -50.450548 145.705079 -48.201694 C 160.037019 -42.836328 187.982624 -56.307364 191.582204 -41.433404 C 194.86647 -27.862369 162.693348 -29.630133 157.179154 -16.802309 C 154.968555 -11.659731 155.679232 -4.087272 159.503767 -0.000001 C 198.82331 42.020696 328.682432 -22.219134 330.279968 35.306628 Z " fill="hsl(37, 91%, 55%)" stroke="undefined" stroke-width="1" stroke-opacity="1" fill-opacity="1" visibility="visible" stroke-linecap="butt" stroke-linejoin="miter" stroke-miterlimit="4"></path></g></svg>